<svg width="290" height="73" viewBox="0 0 290 73" fill="none" xmlns="http://www.w3.org/2000/svg" xmlns:c2pa="http://c2pa.org/manifest"><metadata><c2pa:manifest>AAAWgmp1bWIAAAAeanVtZGMycGEAEQAQgAAAqgA4m3EDYzJwYQAAABZcanVtYgAAAEdqdW1kYzJtYQARABCAAACqADibcQN1cm46YzJwYTowNThmMWQ1NS00OGYyLTRkNzctYjAzMi1iYzlhMTQxYTY2MTQAAAADl2p1bWIAAAApanVtZGMyYXMAEQAQgAAAqgA4m3EDYzJwYS5hc3NlcnRpb25zAAAAALxqdW1iAAAARGp1bWRjYm9yABEAEIAAAKoAOJtxE2MycGEuaW5ncmVkaWVudC52MwAAAAAYYzJzaIAG/z/gxr4mf5YlIfwpGNMAAABwY2JvcqNpZGM6Zm9ybWF0bWltYWdlL3N2Zyt4bWxqaW5zdGFuY2VJRHgseG1wOmlpZDowMDcwMzM3YS04MDZjLTQzYWQtYjZmZS0yYTNlZDQzNjgwYTlscmVsYXRpb25zaGlwaHBhcmVudE9mAAAB4mp1bWIAAABBanVtZGNib3IAEQAQgAAAqgA4m3ETYzJwYS5hY3Rpb25zLnYyAAAAABhjMnNo5soLaH/YLHqAe0WvXxS4ZgAAAZljYm9yomdhY3Rpb25zgqJmYWN0aW9ua2MycGEub3BlbmVkanBhcmFtZXRlcnOha2luZ3JlZGllbnRzgaJjdXJseC1zZWxmI2p1bWJmPWMycGEuYXNzZXJ0aW9ucy9jMnBhLmluZ3JlZGllbnQudjNkaGFzaFggVBwx5SW0EbVKYdNb9Rs+xvkUHfxnX76QUHnGB8WG8G+kZmFjdGlvbngdY29tLmFudGhyb3BpYy5jbGF1ZGUucHJvdmlkZWRqcGFyYW1ldGVyc6F4H2NvbS5hbnRocm9waWMub3JpZ2luLWNvbmZpZGVuY2VndW5rbm93bmtkZXNjcmlwdGlvbnhmQ2xhdWRlIHByb3ZpZGVkIHRoaXMgZmlsZSBhdCB0aGUgcmVxdWVzdCBvZiBhIHVzZXIgYW5kIG1heSBoYXZlIGNyZWF0ZWQgb3IgbW9kaWZpZWQgdGhlIGZpbGUgY29udGVudHMubXNvZnR3YXJlQWdlbnShZG5hbWVmQ2xhdWRlcmFsbEFjdGlvbnNJbmNsdWRlZPUAAADIanVtYgAAAEBqdW1kY2JvcgARABCAAACqADibcRNjMnBhLmhhc2guZGF0YQAAAAAYYzJzaBTn+HZtPOfIqxWVNIheQngAAACAY2JvcqVjYWxnZnNoYTI1NmNwYWRNAAAAAAAAAAAAAAAAAGRoYXNoWCDxa5Y5hdh2bj04AHhhHJSUu2DGyntSzSgNaoauP7O2hGRuYW1lbmp1bWJmIG1hbmlmZXN0amV4Y2x1c2lvbnOBomVzdGFydBigZmxlbmd0aBkeBAAAAj5qdW1iAAAAJ2p1bWRjMmNsABEAEIAAAKoAOJtxA2MycGEuY2xhaW0udjIAAAACD2Nib3KlY2FsZ2ZzaGEyNTZpc2lnbmF0dXJleE1zZWxmI2p1bWJmPS9jMnBhL3VybjpjMnBhOjA1OGYxZDU1LTQ4ZjItNGQ3Ny1iMDMyLWJjOWExNDFhNjYxNC9jMnBhLnNpZ25hdHVyZWppbnN0YW5jZUlEeCx4bXA6aWlkOjFjZWM0NWZmLTlhOTctNGViNS1iYjcyLTZlZjI5MThhMDIzNXJjcmVhdGVkX2Fzc2VydGlvbnODomN1cmx4LXNlbGYjanVtYmY9YzJwYS5hc3NlcnRpb25zL2MycGEuaW5ncmVkaWVudC52M2RoYXNoWCBUHDHlJbQRtUph01v1Gz7G+RQd/GdfvpBQecYHxYbwb6JjdXJseCpzZWxmI2p1bWJmPWMycGEuYXNzZXJ0aW9ucy9jMnBhLmFjdGlvbnMudjJkaGFzaFggAcNd+zokJSX5lH6rSqqT6RnxnlT6ofQxtnTX4hYaPmCiY3VybHgpc2VsZiNqdW1iZj1jMnBhLmFzc2VydGlvbnMvYzJwYS5oYXNoLmRhdGFkaGFzaFggySNLCrXXtq8ztSSbrbohdcOgb11s23r3q/m5qOwkepd0Y2xhaW1fZ2VuZXJhdG9yX2luZm+jZG5hbWVvQW50aHJvcGljIEZpbGVzZ3ZlcnNpb25lMS4wLjBrc3BlY1ZlcnNpb25lMi40LjAAABA4anVtYgAAAChqdW1kYzJjcwARABCAAACqADibcQNjMnBhLnNpZ25hdHVyZQAAABAIY2JvctKEWQISogEmGCFZAgowggIGMIIBjaADAgECAhRA5aAK7sI50L64g/oGQgU9Z1UTADAKBggqhkjOPQQDAzBJMRcwFQYDVQQKEw5BbnRocm9waWMsIFBCQzEuMCwGA1UEAxMlQW50aHJvcGljIENvbnRlbnQgQ3JlZGVudGlhbHMgUm9vdCBDQTAeFw0yNjA4MDcxODQzNTZaFw0yODA4MDYxOTQzNTZaMEQxFzAVBgNVBAoTDkFudGhyb3BpYywgUEJDMSkwJwYDVQQDEyBBbnRocm9waWMgQ2xhdWRlIENvbnRlbnQgU2lnbmluZzBZMBMGByqGSM49AgEGCCqGSM49AwEHA0IABJh6CmvLUBgFFNU0vUKlOVtE6djd17L5SuwX0LemFisBM3dkd/3cyjxFA3Qo5S46fX0/ihY0VZ7mfb9KF703t5OjWDBWMA4GA1UdDwEB/wQEAwIHgDAVBgNVHSUEDjAMBgorBgEEAYPoXgIBMAwGA1UdEwEB/wQCMAAwHwYDVR0jBBgwFoAUzlHiBIFOZFsj+OPEz5o+nMHXXMIwCgYIKoZIzj0EAwMDZwAwZAIwMXMdFJ4BetLLVY7ORuE9noqbbAZOZn/aArXyTwFAZfKrPzxF2vPoJNf1+UCdg1XGAjBwX1zd9WGqYkqmL5SFqw1QySjr1zJfpJM9+1rdDwSPLMOPOjKuiXjoU/pUUeG9RwmhY3BhZFkNngAAAAAAAAAAAAAAAAAAAAAAAAAAAAAAAAAAAAAAAAAAAAAAAAAAAAAAAAAAAAAAAAAAAAAAAAAAAAAAAAAAAAAAAAAAAAAAAAAAAAAAAAAAAAAAAAAAAAAAAAAAAAAAAAAAAAAAAAAAAAAAAAAAAAAAAAAAAAAAAAAAAAAAAAAAAAAAAAAAAAAAAAAAAAAAAAAAAAAAAAAAAAAAAAAAAAAAAAAAAAAAAAAAAAAAAAAAAAAAAAAAAAAAAAAAAAAAAAAAAAAAAAAAAAAAAAAAAAAAAAAAAAAAAAAAAAAAAAAAAAAAAAAAAAAAAAAAAAAAAAAAAAAAAAAAAAAAAAAAAAAAAAAAAAAAAAAAAAAAAAAAAAAAAAAAAAAAAAAAAAAAAAAAAAAAAAAAAAAAAAAAAAAAAAAAAAAAAAAAAAAAAAAAAAAAAAAAAAAAAAAAAAAAAAAAAAAAAAAAAAAAAAAAAAAAAAAAAAAAAAAAAAAAAAAAAAAAAAAAAAAAAAAAAAAAAAAAAAAAAAAAAAAAAAAAAAAAAAAAAAAAAAAAAAAAAAAAAAAAAAAAAAAAAAAAAAAAAAAAAAAAAAAAAAAAAAAAAAAAAAAAAAAAAAAAAAAAAAAAAAAAAAAAAAAAAAAAAAAAAAAAAAAAAAAAAAAAAAAAAAAAAAAAAAAAAAAAAAAAAAAAAAAAAAAAAAAAAAAAAAAAAAAAAAAAAAAAAAAAAAAAAAAAAAAAAAAAAAAAAAAAAAAAAAAAAAAAAAAAAAAAAAAAAAAAAAAAAAAAAAAAAAAAAAAAAAAAAAAAAAAAAAAAAAAAAAAAAAAAAAAAAAAAAAAAAAAAAAAAAAAAAAAAAAAAAAAAAAAAAAAAAAAAAAAAAAAAAAAAAAAAAAAAAAAAAAAAAAAAAAAAAAAAAAAAAAAAAAAAAAAAAAAAAAAAAAAAAAAAAAAAAAAAAAAAAAAAAAAAAAAAAAAAAAAAAAAAAAAAAAAAAAAAAAAAAAAAAAAAAAAAAAAAAAAAAAAAAAAAAAAAAAAAAAAAAAAAAAAAAAAAAAAAAAAAAAAAAAAAAAAAAAAAAAAAAAAAAAAAAAAAAAAAAAAAAAAAAAAAAAAAAAAAAAAAAAAAAAAAAAAAAAAAAAAAAAAAAAAAAAAAAAAAAAAAAAAAAAAAAAAAAAAAAAAAAAAAAAAAAAAAAAAAAAAAAAAAAAAAAAAAAAAAAAAAAAAAAAAAAAAAAAAAAAAAAAAAAAAAAAAAAAAAAAAAAAAAAAAAAAAAAAAAAAAAAAAAAAAAAAAAAAAAAAAAAAAAAAAAAAAAAAAAAAAAAAAAAAAAAAAAAAAAAAAAAAAAAAAAAAAAAAAAAAAAAAAAAAAAAAAAAAAAAAAAAAAAAAAAAAAAAAAAAAAAAAAAAAAAAAAAAAAAAAAAAAAAAAAAAAAAAAAAAAAAAAAAAAAAAAAAAAAAAAAAAAAAAAAAAAAAAAAAAAAAAAAAAAAAAAAAAAAAAAAAAAAAAAAAAAAAAAAAAAAAAAAAAAAAAAAAAAAAAAAAAAAAAAAAAAAAAAAAAAAAAAAAAAAAAAAAAAAAAAAAAAAAAAAAAAAAAAAAAAAAAAAAAAAAAAAAAAAAAAAAAAAAAAAAAAAAAAAAAAAAAAAAAAAAAAAAAAAAAAAAAAAAAAAAAAAAAAAAAAAAAAAAAAAAAAAAAAAAAAAAAAAAAAAAAAAAAAAAAAAAAAAAAAAAAAAAAAAAAAAAAAAAAAAAAAAAAAAAAAAAAAAAAAAAAAAAAAAAAAAAAAAAAAAAAAAAAAAAAAAAAAAAAAAAAAAAAAAAAAAAAAAAAAAAAAAAAAAAAAAAAAAAAAAAAAAAAAAAAAAAAAAAAAAAAAAAAAAAAAAAAAAAAAAAAAAAAAAAAAAAAAAAAAAAAAAAAAAAAAAAAAAAAAAAAAAAAAAAAAAAAAAAAAAAAAAAAAAAAAAAAAAAAAAAAAAAAAAAAAAAAAAAAAAAAAAAAAAAAAAAAAAAAAAAAAAAAAAAAAAAAAAAAAAAAAAAAAAAAAAAAAAAAAAAAAAAAAAAAAAAAAAAAAAAAAAAAAAAAAAAAAAAAAAAAAAAAAAAAAAAAAAAAAAAAAAAAAAAAAAAAAAAAAAAAAAAAAAAAAAAAAAAAAAAAAAAAAAAAAAAAAAAAAAAAAAAAAAAAAAAAAAAAAAAAAAAAAAAAAAAAAAAAAAAAAAAAAAAAAAAAAAAAAAAAAAAAAAAAAAAAAAAAAAAAAAAAAAAAAAAAAAAAAAAAAAAAAAAAAAAAAAAAAAAAAAAAAAAAAAAAAAAAAAAAAAAAAAAAAAAAAAAAAAAAAAAAAAAAAAAAAAAAAAAAAAAAAAAAAAAAAAAAAAAAAAAAAAAAAAAAAAAAAAAAAAAAAAAAAAAAAAAAAAAAAAAAAAAAAAAAAAAAAAAAAAAAAAAAAAAAAAAAAAAAAAAAAAAAAAAAAAAAAAAAAAAAAAAAAAAAAAAAAAAAAAAAAAAAAAAAAAAAAAAAAAAAAAAAAAAAAAAAAAAAAAAAAAAAAAAAAAAAAAAAAAAAAAAAAAAAAAAAAAAAAAAAAAAAAAAAAAAAAAAAAAAAAAAAAAAAAAAAAAAAAAAAAAAAAAAAAAAAAAAAAAAAAAAAAAAAAAAAAAAAAAAAAAAAAAAAAAAAAAAAAAAAAAAAAAAAAAAAAAAAAAAAAAAAAAAAAAAAAAAAAAAAAAAAAAAAAAAAAAAAAAAAAAAAAAAAAAAAAAAAAAAAAAAAAAAAAAAAAAAAAAAAAAAAAAAAAAAAAAAAAAAAAAAAAAAAAAAAAAAAAAAAAAAAAAAAAAAAAAAAAAAAAAAAAAAAAAAAAAAAAAAAAAAAAAAAAAAAAAAAAAAAAAAAAAAAAAAAAAAAAAAAAAAAAAAAAAAAAAAAAAAAAAAAAAAAAAAAAAAAAAAAAAAAAAAAAAAAAAAAAAAAAAAAAAAAAAAAAAAAAAAAAAAAAAAAAAAAAAAAAAAAAAAAAAAAAAAAAAAAAAAAAAAAAAAAAAAAAAAAAAAAAAAAAAAAAAAAAAAAAAAAAAAAAAAAAAAAAAAAAAAAAAAAAAAAAAAAAAAAAAAAAAAAAAAAAAAAAAAAAAAAAAAAAAAAAAAAAAAAAAAAAAAAAAAAAAAAAAAAAAAAAAAAAAAAAAAAAAAAAAAAAAAAAAAAAAAAAAAAAAAAAAAAAAAAAAAAAAAAAAAAAAAAAAAAAAAAAAAAAAAAAAAAAAAAAAAAAAAAAAAAAAAAAAAAAAAAAAAAAAAAAAAAAAAAAAAAAAAAAAAAAAAAAAAAAAAAAAAAAAAAAAAAAAAAAAAAAAAAAAAAAAAAAAAAAAAAAAAAAAAAAAAAAAAAAAAAAAAAAAAAAAAAAAAAAAAAAAAAAAAAAAAAAAAAAAAAAAAAAAAAAAAAAAAAAAAAAAAAAAAAAAAAAAAAAAAAAAAAAAAAAAAAAAAAAAAAAAAAAAAAAAAAAAAAAAAAAAAAAAAAAAAAAAAAAAAAAAAAAAAAAAAAAAAAAAAAAAAAAAAAAAAAAAAAAAAAAAAAAAAAAAAAAAAAAAAAAAAAAAAAAAAAAAAAAAAAAAAAAAAAAAAAAAAAAAAAAAAAAAAAAAAAAAAAAAAAAAAAAAAAAAAAAAAAAAAAAAAAAAAAAAAAAAAAAAAAAAAAAAAAAAAAAAAAAAAAAAAAAAAAAAAAAAAAAAAAAAAAAAAAAAAAAAAAAAAAAAAAAAAAAAAAAAAAAAAAAAAAAAAAAAAAAAAAAAAAAAAAAAAAAAAAAAAAAAAAAAAAAAAAAAAAAAAAAAAAAAAAAAAAAAAAAAAAAAAAAAAAAAAAAAAAAAAAAAAAAAAAAAAAAAAAAAAAAAAAAAAAAAAAAAAAAAAAAAAAAAAAAAAAAAAAAAAAAAAAAAAAAAAAAAAAAAAAAAAAAAAAAAAAAAAAAAAAAAAAAAAAAAAAAAAAAAAAAAAAAAAAAAAAAAAAAAAAAAAAAAAAAAAAAAAAAAAAAAAAAAAAAAAAAAAAAAAAAAAAAAAAAAAAAAAAAAAAAAAAAAAAAAAAAAAAAAAAAAAAAAAAAAAAAAAAAAAAAAAAAAAAAAAAAAAAAAAAAAAAAAAAAAAAAAAAAAAAAAAAAAAAAAAAAAAAAAAAAAAAAAAAAAAAAAAAAAAAAAAAAAAAAAAAAAAAAAAAAAAAAAAAAAAAAAAAAAAAAAAAAAAAAAAAAAAAAAAAAAAAAAAAAAAAAAAAAAAAAAAAAAAAAAAAAAAAAAAAAAAAAAAAAAAAAAAAAAAAAAAAAAAAAAAAAAAAAAAAAAAAAAAAAAAAAAAAAAAAAAAAAAAAAAAAAAAAAAAAAAAAAAAAAAAAAAAAAAAAAAAAAAAAAAAAAAAAAAAAAAAAAAAAAAAAAAAAAAAAAAAAAAAAAAAAAAAAAAAAAAAAAAAAAAAAAAAAAAAAAAAAAAAAAAAAAAAAAAAAAAAAAAAAAAAAAAAAAAAAAAAAAAAAAAAAAAAAAAAAAAAAAAAAAAAAAAAAAAAAAAAAAAAAAAAAAAAAAAAAAAAAAAAAAAAAAAAAAAAAAAAAAAAAAAAAAAAAAAAAAAAAAAAAAAAAAAAAAAAAAAAAAAAAAAAAAAAAAAAAAAAAAAAAAAAAAAAAAAAAAAAAAAAAAAAAAAAAPZYQOarcwRiyfvtAQRBZviFbQUocw1PYWr8vjH2FimpWgDU+y65zm0nIdKqI7bg19o4raTdrAsatgHFxb8plCwnuQM=</c2pa:manifest></metadata>
<path d="M0 50.5657L3.39969 45.0894C6.36688 47.0381 9.62575 48.0374 12.3113 48.0374C13.8904 48.0374 14.6146 47.5578 14.6146 46.6584V46.5584C14.6146 45.5591 13.1763 45.1294 10.4505 44.3699C5.33087 43.0408 1.25728 41.322 1.25728 36.1356V36.0356C1.25728 30.5594 5.6628 27.5215 11.6475 27.5215C15.4294 27.5215 19.3621 28.6207 22.3293 30.5194L19.2113 36.2255C16.5257 34.7465 13.6088 33.8471 11.5469 33.8471C10.1588 33.8471 9.43464 34.3668 9.43464 35.0863V35.1862C9.43464 36.1855 10.9233 36.6652 13.6491 37.4747C18.7687 38.9037 22.8423 40.6625 22.8423 45.6591V45.759C22.8423 51.4251 18.5776 54.3731 12.261 54.3731C7.90579 54.3731 3.5908 53.1339 0 50.5657Z" fill="black"/>
<path d="M22.7891 28.0608H31.7007L35.1004 41.002L39.0734 27.9609H46.597L50.6203 41.0919L54.1205 28.0608H62.8813L54.885 53.9931H47.0295L42.815 40.6222L38.5001 53.9931H30.6949L22.7891 28.0608Z" fill="black"/>
<path d="M82.4271 45.8095V35.3367H79.3594V28.0517H82.4271V21.5361H91.5299V28.0517H97.5648V35.3367H91.5299V44.0407C91.5299 45.8495 92.3446 46.609 94.0243 46.609C95.2212 46.609 96.3679 46.2792 97.4743 45.7496V52.8447C95.8449 53.7441 93.6924 54.3237 91.1476 54.3237C85.686 54.3237 82.4271 51.9453 82.4271 45.8095Z" fill="black"/>
<path d="M98.5179 41.052V40.9521C98.5179 33.6671 104.221 27.5312 112.408 27.5312C117.729 27.5312 121.27 29.8197 123.472 33.2873L117.297 37.8542C116.049 36.1454 114.661 35.1461 112.459 35.1461C109.542 35.1461 107.379 37.7143 107.379 40.8521V40.9521C107.379 44.2798 109.481 46.8081 112.549 46.8081C114.702 46.8081 116.09 45.8088 117.528 44.1399L123.613 48.5169C121.219 52.0345 117.769 54.4129 112.066 54.4129C104.261 54.4129 98.5078 48.317 98.5078 41.042" fill="black"/>
<path d="M125.627 19.0674H134.73V31.5788C136.41 29.4403 138.804 27.4816 142.485 27.4816C147.997 27.4816 151.296 31.0992 151.296 36.9552V53.8036H142.193V39.8632C142.193 37.0551 140.705 35.5361 138.552 35.5361C136.4 35.5361 134.72 37.0551 134.72 39.8632V53.8036H125.617V19.0674H125.627Z" fill="black"/>
<path d="M163.888 50.655V53.7928H154.785V19.0566H163.888V31.4781C165.658 29.3396 167.861 27.4809 171.743 27.4809C177.919 27.4809 183.24 32.5774 183.24 40.8017V40.9017C183.24 49.2759 177.919 54.3725 171.794 54.3725C167.861 54.3725 165.568 52.6137 163.888 50.665M174.278 40.9616V40.8617C174.278 37.484 171.934 35.0557 168.957 35.0557C165.98 35.0557 163.687 37.484 163.687 40.8617V40.9616C163.687 44.3893 166.03 46.8176 168.957 46.8176C171.884 46.8176 174.278 44.4392 174.278 40.9616Z" fill="black"/>
<path d="M184.914 41.0521V40.9522C184.914 33.6272 190.949 27.4814 199.287 27.4814C207.626 27.4814 213.56 33.5273 213.56 40.8523V40.9522C213.56 48.2772 207.525 54.423 199.187 54.423C190.848 54.423 184.914 48.3771 184.914 41.0521ZM204.699 41.0521V40.9522C204.699 37.8144 202.395 35.1462 199.187 35.1462C195.978 35.1462 193.775 37.7644 193.775 40.8523V40.9522C193.775 44.0901 196.079 46.7583 199.287 46.7583C202.496 46.7583 204.699 44.14 204.699 41.0521Z" fill="black"/>
<path d="M214.895 46.428V46.3281C214.895 41.0018 218.968 38.2337 225.043 38.2337C227.437 38.2337 229.781 38.7133 231.269 39.233V38.8033C231.269 36.1351 229.59 34.6162 226.099 34.6162C223.374 34.6162 221.261 35.1358 218.968 36.0452L217.097 29.6695C220.014 28.4803 223.132 27.6709 227.588 27.6709C232.044 27.6709 235.393 28.7701 237.455 30.8087C239.417 32.7074 240.231 35.3756 240.231 38.9931V53.793H231.229V51.1248C229.459 53.0735 227.015 54.3626 223.615 54.3626C218.676 54.3626 214.895 51.5546 214.895 46.4181M231.37 44.4694V43.2802C230.455 42.9005 229.167 42.6107 227.829 42.6107C225.194 42.6107 223.665 43.8998 223.665 45.7985V45.8984C223.665 47.6572 225.003 48.7065 226.874 48.7065C229.509 48.7065 231.38 47.0376 231.38 44.4694" fill="black"/>
<path d="M243.68 28.0608H252.782V33.2472C254.271 29.7297 256.665 27.4412 260.97 27.6311V37.1446H260.205C255.468 37.1446 252.782 39.8527 252.782 45.8087V53.8032H243.68V28.0608Z" fill="black"/>
<path d="M261.547 41.0516V40.9517C261.547 32.5774 266.817 27.4809 272.943 27.4809C276.876 27.4809 279.169 29.2397 280.899 31.1883V19.0566H290.002V53.7928H280.899V50.3652C279.129 52.5037 276.876 54.3625 272.993 54.3625C266.868 54.3625 261.547 49.266 261.547 41.0416M281.04 40.9417V40.8417C281.04 37.464 278.696 35.0357 275.769 35.0357C272.842 35.0357 270.459 37.4141 270.459 40.8417V40.9417C270.459 44.3693 272.852 46.7976 275.769 46.7976C278.686 46.7976 281.04 44.3693 281.04 40.9417Z" fill="black"/>
<path d="M75.3578 51.7745V21.2255C79.2503 19.4866 81.9761 15.6093 81.9761 11.1024C81.9761 4.9866 76.9671 0 70.8114 0C64.6558 0 59.6367 4.97661 59.6367 11.1024C59.6367 15.6093 62.3625 19.4966 66.2551 21.2255V51.7745C62.3625 53.5034 59.6367 57.3907 59.6367 61.8976C59.6367 68.0134 64.6457 73 70.8114 73C76.9771 73 81.9761 68.0234 81.9761 61.8976C81.9761 57.3907 79.2503 53.5034 75.3578 51.7745ZM70.8114 6.64544C73.2858 6.64544 75.2974 8.6441 75.2974 11.1024C75.2974 13.5607 73.2858 15.5594 70.8114 15.5594C68.3371 15.5594 66.3255 13.5607 66.3255 11.1024C66.3255 8.6441 68.3371 6.64544 70.8114 6.64544ZM70.8114 66.3546C68.3371 66.3546 66.3255 64.3559 66.3255 61.8976C66.3255 59.4393 68.3371 57.4407 70.8114 57.4407C73.2858 57.4407 75.2974 59.4393 75.2974 61.8976C75.2974 64.3559 73.2858 66.3546 70.8114 66.3546Z" fill="#FF6234"/>
</svg>
